<?xml version="1.0" encoding="utf-8"?>
<svg version="1.1" xmlns:xlink="http://www.w3.org/1999/xlink" width="7px" height="14px" xmlns="http://www.w3.org/2000/svg">
  <g transform="matrix(1 0 0 1 -624 -8216 )">
    <path d="M 5.15277777777778 0  C 5.94675925925926 0  6.5625 0.033653846153846  7 0.100961538461538  L 7 2.32211538461538  L 5.72800925925926 2.32211538461538  C 5.26350308641975 2.32211538461538  4.95023148148148 2.42307692307692  4.78819444444444 2.625  C 4.62615740740741 2.82692307692308  4.54513888888889 3.12980769230769  4.54513888888889 3.53365384615385  L 4.54513888888889 5.12379807692308  L 6.91898148148148 5.12379807692308  L 6.60300925925926 7.61418269230769  L 4.54513888888889 7.61418269230769  L 4.54513888888889 14  L 2.06597222222222 14  L 2.06597222222222 7.61418269230769  L 0 7.61418269230769  L 0 5.12379807692308  L 2.06597222222222 5.12379807692308  L 2.06597222222222 3.28966346153846  C 2.06597222222222 2.24639423076923  2.34683641975309 1.43729967948718  2.90856481481481 0.862379807692308  C 3.47029320987654 0.287459935897437  4.21836419753086 0  5.15277777777778 0  Z " fill-rule="nonzero" fill="#ffffff" stroke="none" transform="matrix(1 0 0 1 624 8216 )" />
  </g>
</svg>