<?xml version="1.0" encoding="utf-8"?>
<svg version="1.1" xmlns:xlink="http://www.w3.org/1999/xlink" width="23px" height="23px" xmlns="http://www.w3.org/2000/svg">
  <g transform="matrix(1 0 0 1 -1103 -2242 )">
    <path d="M 14.2102864583333 14.2102864583333  C 14.958984375 13.4615885416667  15.3333333333333 12.5581597222222  15.3333333333333 11.5  C 15.3333333333333 10.4418402777778  14.958984375 9.53841145833333  14.2102864583333 8.78971354166667  C 13.4615885416667 8.041015625  12.5581597222222 7.66666666666667  11.5 7.66666666666667  C 10.4418402777778 7.66666666666667  9.53841145833333 8.041015625  8.78971354166667 8.78971354166667  C 8.041015625 9.53841145833333  7.66666666666667 10.4418402777778  7.66666666666667 11.5  C 7.66666666666667 12.5581597222222  8.041015625 13.4615885416667  8.78971354166667 14.2102864583333  C 9.53841145833333 14.958984375  10.4418402777778 15.3333333333333  11.5 15.3333333333333  C 12.5581597222222 15.3333333333333  13.4615885416667 14.958984375  14.2102864583333 14.2102864583333  Z M 15.677734375 7.322265625  C 16.8257378472222 8.47026909722222  17.3997395833333 9.86284722222222  17.3997395833333 11.5  C 17.3997395833333 13.1371527777778  16.8257378472222 14.5297309027778  15.677734375 15.677734375  C 14.5297309027778 16.8257378472222  13.1371527777778 17.3997395833333  11.5 17.3997395833333  C 9.86284722222222 17.3997395833333  8.47026909722222 16.8257378472222  7.322265625 15.677734375  C 6.17426215277778 14.5297309027778  5.60026041666667 13.1371527777778  5.60026041666667 11.5  C 5.60026041666667 9.86284722222222  6.17426215277778 8.47026909722222  7.322265625 7.322265625  C 8.47026909722222 6.17426215277778  9.86284722222222 5.60026041666667  11.5 5.60026041666667  C 13.1371527777778 5.60026041666667  14.5297309027778 6.17426215277778  15.677734375 7.322265625  Z M 18.6126302083333 4.38736979166667  C 18.8821614583333 4.65690104166667  19.0169270833333 4.98133680555555  19.0169270833333 5.36067708333333  C 19.0169270833333 5.74001736111111  18.8821614583333 6.064453125  18.6126302083333 6.333984375  C 18.3430989583333 6.603515625  18.0186631944444 6.73828125  17.6393229166667 6.73828125  C 17.2599826388889 6.73828125  16.935546875 6.603515625  16.666015625 6.333984375  C 16.396484375 6.064453125  16.26171875 5.74001736111111  16.26171875 5.36067708333333  C 16.26171875 4.98133680555555  16.396484375 4.65690104166667  16.666015625 4.38736979166667  C 16.935546875 4.11783854166667  17.2599826388889 3.98307291666667  17.6393229166667 3.98307291666667  C 18.0186631944444 3.98307291666667  18.3430989583333 4.11783854166667  18.6126302083333 4.38736979166667  Z M 12.6455078125 2.05891927083333  C 11.9517144097222 2.06391059027778  11.5698784722222 2.06640625  11.5 2.06640625  C 11.4301215277778 2.06640625  11.0482855902778 2.06391059027778  10.3544921875 2.05891927083333  C 9.66069878472222 2.05392795138889  9.13411458333333 2.05392795138889  8.77473958333333 2.05891927083333  C 8.41536458333333 2.06391059027778  7.93370225694444 2.07888454861111  7.32975260416667 2.10384114583333  C 6.72580295138889 2.12879774305555  6.21169704861111 2.1787109375  5.78743489583333 2.25358072916667  C 5.36317274305556 2.32845052083333  5.00629340277778 2.42078993055555  4.716796875 2.53059895833333  C 4.21766493055556 2.73025173611111  3.77842881944444 3.01974826388889  3.39908854166667 3.39908854166667  C 3.01974826388889 3.77842881944444  2.73025173611111 4.21766493055555  2.53059895833333 4.716796875  C 2.42078993055556 5.00629340277778  2.32845052083333 5.36317274305555  2.25358072916667 5.78743489583333  C 2.1787109375 6.21169704861111  2.12879774305556 6.72580295138889  2.10384114583333 7.32975260416667  C 2.07888454861111 7.93370225694444  2.06391059027778 8.41536458333333  2.05891927083333 8.77473958333333  C 2.05392795138889 9.13411458333333  2.05392795138889 9.66069878472222  2.05891927083333 10.3544921875  C 2.06391059027778 11.0482855902778  2.06640625 11.4301215277778  2.06640625 11.5  C 2.06640625 11.5698784722222  2.06391059027778 11.9517144097222  2.05891927083333 12.6455078125  C 2.05392795138889 13.3393012152778  2.05392795138889 13.8658854166667  2.05891927083333 14.2252604166667  C 2.06391059027778 14.5846354166667  2.07888454861111 15.0662977430556  2.10384114583333 15.6702473958333  C 2.12879774305556 16.2741970486111  2.1787109375 16.7883029513889  2.25358072916667 17.2125651041667  C 2.32845052083333 17.6368272569444  2.42078993055556 17.9937065972222  2.53059895833333 18.283203125  C 2.73025173611111 18.7823350694444  3.01974826388889 19.2215711805556  3.39908854166667 19.6009114583333  C 3.77842881944444 19.9802517361111  4.21766493055556 20.2697482638889  4.716796875 20.4694010416667  C 5.00629340277778 20.5792100694444  5.36317274305556 20.6715494791667  5.78743489583333 20.7464192708333  C 6.21169704861111 20.8212890625  6.72580295138889 20.8712022569444  7.32975260416667 20.8961588541667  C 7.93370225694444 20.9211154513889  8.41536458333333 20.9360894097222  8.77473958333333 20.9410807291667  C 9.13411458333333 20.9460720486111  9.66069878472222 20.9460720486111  10.3544921875 20.9410807291667  C 11.0482855902778 20.9360894097222  11.4301215277778 20.93359375  11.5 20.93359375  C 11.5698784722222 20.93359375  11.9517144097222 20.9360894097222  12.6455078125 20.9410807291667  C 13.3393012152778 20.9460720486111  13.8658854166667 20.9460720486111  14.2252604166667 20.9410807291667  C 14.5846354166667 20.9360894097222  15.0662977430556 20.9211154513889  15.6702473958333 20.8961588541667  C 16.2741970486111 20.8712022569444  16.7883029513889 20.8212890625  17.2125651041667 20.7464192708333  C 17.6368272569444 20.6715494791667  17.9937065972222 20.5792100694444  18.283203125 20.4694010416667  C 18.7823350694444 20.2697482638889  19.2215711805556 19.9802517361111  19.6009114583333 19.6009114583333  C 19.9802517361111 19.2215711805556  20.2697482638889 18.7823350694444  20.4694010416667 18.283203125  C 20.5792100694444 17.9937065972222  20.6715494791667 17.6368272569444  20.7464192708333 17.2125651041667  C 20.8212890625 16.7883029513889  20.8712022569444 16.2741970486111  20.8961588541667 15.6702473958333  C 20.9211154513889 15.0662977430556  20.9360894097222 14.5846354166667  20.9410807291667 14.2252604166667  C 20.9460720486111 13.8658854166667  20.9460720486111 13.3393012152778  20.9410807291667 12.6455078125  C 20.9360894097222 11.9517144097222  20.93359375 11.5698784722222  20.93359375 11.5  C 20.93359375 11.4301215277778  20.9360894097222 11.0482855902778  20.9410807291667 10.3544921875  C 20.9460720486111 9.66069878472222  20.9460720486111 9.13411458333333  20.9410807291667 8.77473958333333  C 20.9360894097222 8.41536458333333  20.9211154513889 7.93370225694444  20.8961588541667 7.32975260416667  C 20.8712022569444 6.72580295138889  20.8212890625 6.21169704861111  20.7464192708333 5.78743489583333  C 20.6715494791667 5.36317274305555  20.5792100694444 5.00629340277778  20.4694010416667 4.716796875  C 20.2697482638889 4.21766493055555  19.9802517361111 3.77842881944444  19.6009114583333 3.39908854166667  C 19.2215711805556 3.01974826388889  18.7823350694444 2.73025173611111  18.283203125 2.53059895833333  C 17.9937065972222 2.42078993055555  17.6368272569444 2.32845052083333  17.2125651041667 2.25358072916667  C 16.7883029513889 2.1787109375  16.2741970486111 2.12879774305555  15.6702473958333 2.10384114583333  C 15.0662977430556 2.07888454861111  14.5846354166667 2.06391059027778  14.2252604166667 2.05891927083333  C 13.8658854166667 2.05392795138889  13.3393012152778 2.05392795138889  12.6455078125 2.05891927083333  Z M 22.9251302083333 6.75325520833333  C 22.9750434027778 7.63172743055555  23 9.21397569444444  23 11.5  C 23 13.7860243055556  22.9750434027778 15.3682725694444  22.9251302083333 16.2467447916667  C 22.8253038194444 18.3231336805556  22.2063802083333 19.9303385416667  21.068359375 21.068359375  C 19.9303385416667 22.2063802083333  18.3231336805556 22.8253038194444  16.2467447916667 22.9251302083333  C 15.3682725694444 22.9750434027778  13.7860243055556 23  11.5 23  C 9.21397569444444 23  7.63172743055556 22.9750434027778  6.75325520833333 22.9251302083333  C 4.67686631944445 22.8253038194444  3.06966145833333 22.2063802083333  1.931640625 21.068359375  C 0.793619791666667 19.9303385416667  0.174696180555556 18.3231336805556  0.0748697916666667 16.2467447916667  C 0.0249565972222222 15.3682725694444  0 13.7860243055556  0 11.5  C 0 9.21397569444444  0.0249565972222222 7.63172743055555  0.0748697916666667 6.75325520833333  C 0.174696180555556 4.67686631944444  0.793619791666667 3.06966145833333  1.931640625 1.931640625  C 3.06966145833333 0.793619791666668  4.67686631944445 0.174696180555554  6.75325520833333 0.0748697916666675  C 7.63172743055556 0.0249565972222191  9.21397569444444 0  11.5 0  C 13.7860243055556 0  15.3682725694444 0.0249565972222191  16.2467447916667 0.0748697916666675  C 18.3231336805556 0.174696180555554  19.9303385416667 0.793619791666668  21.068359375 1.931640625  C 22.2063802083333 3.06966145833333  22.8253038194444 4.67686631944444  22.9251302083333 6.75325520833333  Z " fill-rule="nonzero" fill="#ffffff" stroke="none" transform="matrix(1 0 0 1 1103 2242 )" />
  </g>
</svg>