<?xml version="1.0" encoding="utf-8"?>
<svg version="1.1" xmlns:xlink="http://www.w3.org/1999/xlink" width="28px" height="34px" xmlns="http://www.w3.org/2000/svg">
  <g transform="matrix(1 0 0 1 -167 -6118 )">
    <path d="M 11.4048295454545 33.0343082114736  C 11.9815340909091 32.6454818147732  12.2698863636364 32.3108361454818  12.2698863636364 32.0303712035996  C 12.2698863636364 31.8901387326584  12.1837121212121 31.5204349456318  12.0113636363636 30.9212598425197  C 11.8390151515152 30.3220847394076  11.6335227272727 29.6400449943757  11.3948863636364 28.8751406074241  C 11.15625 28.1102362204724  11.0236742424242 27.6704161979753  10.9971590909091 27.5556805399325  C 10.9839015151515 27.5046869141357  10.9507575757576 27.3357705286839  10.8977272727273 27.0489313835771  C 10.844696969697 26.7620922384702  10.7883522727273 26.5326209223847  10.7286931818182 26.3605174353206  C 10.6690340909091 26.1884139482565  10.5795454545455 26.0513685789276  10.4602272727273 25.9493813273341  C 10.2613636363636 25.7709036370454  9.92329545454546 25.681664791901  9.44602272727273 25.681664791901  C 9.14109848484848 25.681664791901  8.67708333333333 25.7167229096363  8.05397727272727 25.7868391451069  C 7.43087121212121 25.8569553805774  6.96022727272727 25.8920134983127  6.64204545454545 25.8920134983127  C 6.19128787878788 25.8920134983127  5.87973484848485 25.8218972628421  5.70738636363636 25.681664791901  C 5.62784090909091 25.617922759655  5.55492424242424 25.5191226096738  5.48863636363636 25.3852643419573  C 5.42234848484849 25.2514060742407  5.37263257575758 25.1239220097488  5.33948863636364 25.0028121484814  C 5.3063446969697 24.8817022872141  5.26325757575758 24.7287214098238  5.21022727272727 24.5438695163105  C 5.15719696969697 24.3590176227972  5.12405303030303 24.2410948631421  5.11079545454545 24.1901012373453  C 4.62026515151515 22.5583052118485  4.375 20.9328833895763  4.375 19.3138357705287  C 4.375 17.6947881514811  4.62026515151515 16.0693663292088  5.11079545454545 14.437570303712  C 5.12405303030303 14.3865766779153  5.15719696969697 14.2686539182602  5.21022727272727 14.0838020247469  C 5.26325757575758 13.8989501312336  5.3063446969697 13.7459692538433  5.33948863636364 13.6248593925759  C 5.37263257575758 13.5037495313086  5.42234848484849 13.3762654668166  5.48863636363636 13.2424071991001  C 5.55492424242424 13.1085489313836  5.62784090909091 13.0097487814023  5.70738636363636 12.9460067491564  C 5.87973484848485 12.8057742782152  6.19128787878788 12.7356580427447  6.64204545454545 12.7356580427447  C 6.96022727272727 12.7356580427447  7.43087121212121 12.7707161604799  8.05397727272727 12.8408323959505  C 8.67708333333333 12.9109486314211  9.14109848484848 12.9460067491564  9.44602272727273 12.9460067491564  C 9.92329545454546 12.9460067491564  10.2613636363636 12.856767904012  10.4602272727273 12.6782902137233  C 10.5795454545455 12.5763029621297  10.6690340909091 12.4392575928009  10.7286931818182 12.2671541057368  C 10.7883522727273 12.0950506186727  10.844696969697 11.8655793025872  10.8977272727273 11.5787401574803  C 10.9507575757576 11.2919010123735  10.9839015151515 11.1229846269216  10.9971590909091 11.0719910011249  C 11.0236742424242 10.9572553430821  11.15625 10.5174353205849  11.3948863636364 9.75253093363329  C 11.6335227272727 8.98762654668166  11.8390151515152 8.30558680164979  12.0113636363636 7.70641169853768  C 12.1837121212121 7.10723659542557  12.2698863636364 6.73753280839895  12.2698863636364 6.59730033745782  C 12.2698863636364 6.31683539557555  11.9815340909091 5.98218972628421  11.4048295454545 5.5933633295838  C 10.828125 5.20453693288339  10.3276515151515 4.93363329583802  9.90340909090909 4.78065241844769  C 9.63825757575758 4.67866516685414  9.33996212121212 4.62767154105737  9.00852272727273 4.62767154105737  C 8.55776515151515 4.62767154105737  7.90814393939394 4.74240719910011  7.05965909090909 4.9718785151856  C 6.30397727272727 5.1886014248219  5.66429924242424 5.44675665541807  5.140625 5.74634420697413  C 4.61695075757576 6.04593175853018  4.14630681818182 6.46662917135358  3.72869318181818 7.00843644544432  C 3.31107954545455 7.55024371953506  3.0061553030303 7.99643794525684  2.81392045454545 8.34701912260967  C 2.62168560606061 8.69760029996251  2.32007575757576 9.29996250468691  1.90909090909091 10.1541057367829  C 1.82954545454545 10.3070866141732  1.76988636363636 10.4281964754406  1.73011363636364 10.5174353205849  C 1.08049242424242 11.8815148106487  0.629734848484849 13.2583427071616  0.377840909090909 14.6479190101237  C 0.12594696969697 16.0374953130859  0 17.5928008998875  0 19.3138357705287  C 0 21.0348706411699  0.12594696969697 22.5901762279715  0.377840909090909 23.9797525309336  C 0.629734848484849 25.3693288338958  1.08049242424242 26.7461567304087  1.73011363636364 28.1102362204724  C 2.47253787878788 29.6655418072741  3.02272727272727 30.6917885264342  3.38068181818182 31.1889763779528  C 4.21590909090909 32.3490813648294  5.40246212121212 33.1586051743532  6.94034090909091 33.6175478065242  L 7.05965909090909 33.6557930258718  C 7.90814393939394 33.8852643419573  8.55776515151515 34  9.00852272727273 34  C 9.33996212121212 34  9.63825757575758 33.9490063742032  9.90340909090909 33.8470191226097  C 10.3276515151515 33.6940382452193  10.828125 33.423134608174  11.4048295454545 33.0343082114736  Z M 16.3267045454545 14.2080989876265  C 16.0482954545455 14.4503187101612  15.75 14.5714285714286  15.4318181818182 14.5714285714286  C 15.0871212121212 14.5714285714286  14.7888257575758 14.4503187101612  14.5369318181818 14.2080989876265  C 14.2850378787879 13.9658792650919  14.1590909090909 13.6758530183727  14.1590909090909 13.3380202474691  C 14.1590909090909 13.0001874765654  14.2850378787879 12.7101612298463  14.5369318181818 12.4679415073116  C 15.0274621212121 11.9962504686914  15.2727272727273 11.4225721784777  15.2727272727273 10.7469066366704  C 15.2727272727273 10.0839895013123  15.0274621212121 9.50393700787401  14.5369318181818 9.00674915635546  C 14.2850378787879 8.76452943382077  14.1590909090909 8.47769028871391  14.1590909090909 8.14623172103487  C 14.1590909090909 7.81477315335583  14.2850378787879 7.52793400824897  14.5369318181818 7.28571428571429  C 14.7888257575758 7.0434945631796  15.0871212121212 6.92238470191226  15.4318181818182 6.92238470191226  C 15.7765151515152 6.92238470191226  16.0748106060606 7.0434945631796  16.3267045454545 7.28571428571429  C 17.3210227272727 8.24184476940382  17.8181818181818 9.39557555305587  17.8181818181818 10.7469066366704  C 17.8181818181818 12.098237720285  17.3210227272727 13.251968503937  16.3267045454545 14.2080989876265  Z M 19.9261363636364 17.6692913385827  C 19.6875 17.9115110611174  19.3892045454545 18.0326209223847  19.03125 18.0326209223847  C 18.6732954545455 18.0326209223847  18.375 17.9115110611174  18.1363636363636 17.6692913385827  C 17.8844696969697 17.427071616048  17.7585227272727 17.1402324709411  17.7585227272727 16.8087739032621  C 17.7585227272727 16.4773153355831  17.8844696969697 16.1904761904762  18.1363636363636 15.9482564679415  C 19.6212121212121 14.4949381327334  20.3636363636364 12.761154855643  20.3636363636364 10.7469066366704  C 20.3636363636364 8.73265841769778  19.6212121212121 6.99887514060743  18.1363636363636 5.54555680539933  C 17.8844696969697 5.30333708286464  17.7585227272727 5.01649793775778  17.7585227272727 4.68503937007874  C 17.7585227272727 4.3535808023997  17.8844696969697 4.06674165729283  18.1363636363636 3.82452193475815  C 18.3882575757576 3.58230221222347  18.686553030303 3.46119235095613  19.03125 3.46119235095613  C 19.375946969697 3.46119235095613  19.6742424242424 3.58230221222347  19.9261363636364 3.82452193475815  C 21.9147727272727 5.73678290213723  22.9090909090909 8.04424446944132  22.9090909090909 10.7469066366704  C 22.9090909090909 13.4495688038995  21.9147727272727 15.7570303712036  19.9261363636364 17.6692913385827  Z M 23.5255681818182 21.1304836895388  C 23.2869318181818 21.3727034120735  22.9886363636364 21.4938132733408  22.6306818181818 21.4938132733408  C 22.2727272727273 21.4938132733408  21.9744318181818 21.3727034120735  21.7357954545455 21.1304836895388  C 21.4839015151515 20.8882639670041  21.3579545454545 20.6014248218973  21.3579545454545 20.2699662542182  C 21.3579545454545 19.9385076865392  21.4839015151515 19.6516685414323  21.7357954545455 19.4094488188976  C 22.9289772727273 18.249343832021  23.8470643939394 16.9235095613048  24.4900568181818 15.4319460067492  C 25.1330492424242 13.9403824521935  25.4545454545455 12.3787026621672  25.4545454545455 10.7469066366704  C 25.4545454545455 9.1151106111736  25.1330492424242 7.55343082114736  24.4900568181818 6.06186726659168  C 23.8470643939394 4.57030371203599  22.9289772727273 3.24446944131983  21.7357954545455 2.0843644544432  C 21.4839015151515 1.84214473190851  21.3579545454545 1.55530558680165  21.3579545454545 1.22384701912261  C 21.3579545454545 0.892388451443567  21.4839015151515 0.605549306336706  21.7357954545455 0.363329583802025  C 21.9876893939394 0.12110986126734  22.2859848484849 0  22.6306818181818 0  C 22.9753787878788 0  23.2736742424242 0.12110986126734  23.5255681818182 0.363329583802025  C 24.9706439393939 1.75290588676415  26.0776515151515 3.34008248968878  26.8465909090909 5.12485939257593  C 27.6155303030303 6.90963629546307  28 8.78365204349456  28 10.7469066366704  C 28 12.7101612298463  27.6155303030303 14.5841769778778  26.8465909090909 16.3689538807649  C 26.0776515151515 18.153730783652  24.9706439393939 19.7409073865767  23.5255681818182 21.1304836895388  Z " fill-rule="nonzero" fill="#ffffff" stroke="none" transform="matrix(1 0 0 1 167 6118 )" />
  </g>
</svg>