<?xml version="1.0" encoding="utf-8"?>
<svg version="1.1" xmlns:xlink="http://www.w3.org/1999/xlink" width="28px" height="23px" xmlns="http://www.w3.org/2000/svg">
  <g transform="matrix(1 0 0 1 -35 -6472 )">
    <path d="M 23.9752168525403 13.1402961808262  C 23.9867823213548 13.1641984931151  23.9925650557621 13.2000519615485  23.9925650557621 13.2478565861263  L 23.9925650557621 21.8526890101325  C 23.9925650557621 22.1634190698883  23.882693102024 22.4323200831385  23.6629491945477 22.6593920498831  C 23.4432052870715 22.8864640166277  23.1829822387443 23  22.8822800495663 23  L 16.2205700123916 23  L 16.2205700123916 16.116134060795  L 11.7794299876084 16.116134060795  L 11.7794299876084 23  L 5.11771995043371 23  C 4.81701776125568 23  4.55679471292854 22.8864640166277  4.33705080545229 22.6593920498831  C 4.11730689797604 22.4323200831385  4.00743494423792 22.1634190698883  4.00743494423792 21.8526890101325  L 4.00743494423792 13.2478565861263  C 4.00743494423792 13.2359054299818  4.01032631144155 13.2179786957651  4.01610904584882 13.1940763834762  C 4.02189178025609 13.1701740711873  4.02478314745973 13.1522473369706  4.02478314745973 13.1402961808262  L 14 4.64302416212003  L 23.9752168525403 13.1402961808262  Z M 27.9826517967782 11.5896336710834  C 27.9942172655927 11.7509742790335  27.9537381247418 11.8914003637308  27.8612143742255 12.0109119251754  L 26.7856257744734 13.3374902572097  C 26.693102023957 13.4450506625097  26.5716646014044 13.5107820213042  26.4213135068154 13.5346843335931  L 26.3692688971499 13.5346843335931  C 26.2189178025609 13.5346843335931  26.0974803800083 13.4928552870876  26.0049566294919 13.4091971940764  L 14 3.06547155105222  L 1.99504337050805 13.4091971940764  C 1.85625774473358 13.504806443232  1.71747211895911 13.5466354897376  1.57868649318463 13.5346843335931  C 1.42833539859562 13.5107820213042  1.30689797604296 13.4450506625097  1.21437422552664 13.3374902572097  L 0.138785625774473 12.0109119251754  C 0.0462618752581578 11.8914003637308  0.00578273440726976 11.7509742790335  0.0173482032218092 11.5896336710834  C 0.0289136720363487 11.4282930631333  0.0925237505163156 11.2998181345804  0.20817843866171 11.2042088854248  L 12.6815365551425 0.466095089633672  C 13.0516315572078 0.155365029877888  13.4911193721603 0  14 0  C 14.5088806278397 0  14.9483684427922 0.155365029877888  15.3184634448575 0.466095089633672  L 19.5514250309789 4.12314886983632  L 19.5514250309789 0.627435697583787  C 19.5514250309789 0.460119511561442  19.6034696406444 0.322681215900233  19.7075588599752 0.215120810600157  C 19.8116480793061 0.107560405300078  19.9446509706733 0.0537802026500392  20.1065675340768 0.0537802026500392  L 23.4374225526642 0.0537802026500392  C 23.5993391160677 0.0537802026500392  23.7323420074349 0.107560405300078  23.8364312267658 0.215120810600157  C 23.9405204460967 0.322681215900233  23.9925650557621 0.460119511561442  23.9925650557621 0.627435697583787  L 23.9925650557621 7.94154325798909  L 27.7918215613383 11.2042088854248  C 27.9074762494837 11.2998181345804  27.9710863279637 11.4282930631333  27.9826517967782 11.5896336710834  Z " fill-rule="nonzero" fill="#f59a23" stroke="none" transform="matrix(1 0 0 1 35 6472 )" />
  </g>
</svg>