<?xml version="1.0" encoding="utf-8"?>
<svg version="1.1" xmlns:xlink="http://www.w3.org/1999/xlink" width="31px" height="24px" xmlns="http://www.w3.org/2000/svg">
  <g transform="matrix(1 0 0 1 -312 -6473 )">
    <path d="M 22.7310267857143 4.34350603264727  C 23.8151041666667 5.68346344925479  24.3571428571429 7.14265436479773  24.3571428571429 8.72107877927608  C 24.3571428571429 10.2995031937544  23.8151041666667 11.7586941092974  22.7310267857143 13.0986515259049  C 21.6469494047619 14.4386089425124  20.1678757440476 15.4975159687722  18.2938058035714 16.2753726046842  C 16.4197358630952 17.0532292405962  14.3813244047619 17.4421575585522  12.1785714285714 17.4421575585522  C 11.186755952381 17.4421575585522  10.171875 17.3513129879347  9.13392857142857 17.1696238466998  C 7.70386904761905 18.1689141234918  6.10081845238095 18.8956706884315  4.32477678571429 19.3498935415188  C 3.90959821428571 19.4520936834635  3.41369047619048 19.5429382540809  2.83705357142857 19.6224272533712  L 2.78515625 19.6224272533712  C 2.65829613095238 19.6224272533712  2.54008556547619 19.5770049680625  2.43052455357143 19.486160397445  C 2.32096354166667 19.3953158268275  2.25465029761905 19.2760823278921  2.23158482142857 19.1284599006388  C 2.22005208333333 19.0943931866572  2.21428571428571 19.0574875798439  2.21428571428571 19.0177430801987  C 2.21428571428571 18.9779985805536  2.21716889880952 18.9410929737402  2.22293526785714 18.9070262597587  C 2.22870163690476 18.8729595457771  2.240234375 18.8388928317956  2.25753348214286 18.8048261178141  L 2.30078125 18.7196593328602  C 2.30078125 18.7196593328602  2.32096354166667 18.6884315117104  2.361328125 18.6259758694109  C 2.40169270833333 18.5635202271114  2.42475818452381 18.5351312987935  2.43052455357143 18.5408090844571  C 2.43629092261905 18.5464868701207  2.46223958333333 18.5180979418027  2.50837053571429 18.4556422995032  C 2.55450148809524 18.3931866572037  2.57756696428571 18.3676366217175  2.57756696428571 18.3789921930447  C 2.6352306547619 18.3108587650816  2.76785714285714 18.1689141234918  2.97544642857143 17.9531582682754  C 3.18303571428571 17.7374024130589  3.33296130952381 17.569907735983  3.42522321428571 17.4506742370476  C 3.51748511904762 17.3314407381121  3.64722842261905 17.166784953868  3.814453125 16.9567068843151  C 3.98167782738095 16.7466288147622  4.12583705357143 16.528034066714  4.24693080357143 16.3009226401703  C 4.36802455357143 16.0738112136267  4.48623511904762 15.8239886444287  4.6015625 15.5514549325763  C 3.17150297619048 14.7338537970192  2.04706101190476 13.7288857345635  1.22823660714286 12.5365507452094  C 0.409412202380952 11.3442157558552  0 10.0723917672108  0 8.72107877927608  C 0 7.14265436479773  0.54203869047619 5.68346344925479  1.62611607142857 4.34350603264727  C 2.71019345238095 3.00354861603974  4.18926711309524 1.94464158977998  6.06333705357143 1.16678495386799  C 7.93740699404762 0.388928317955997  9.97581845238095 0  12.1785714285714 0  C 14.3813244047619 0  16.4197358630952 0.388928317955997  18.2938058035714 1.16678495386799  C 20.1678757440476 1.94464158977998  21.6469494047619 3.00354861603974  22.7310267857143 4.34350603264727  Z M 29.7025669642857 9.1639460610362  C 30.5675223214286 10.3789921930447  31 11.6848828956707  31 13.0816181689141  C 31 14.444286728176  30.5905877976191 15.7189496096522  29.7717633928571 16.9056068133428  C 28.9529389880952 18.0922640170334  27.8284970238095 19.0943931866572  26.3984375 19.9119943222143  C 26.5137648809524 20.1845280340667  26.6319754464286 20.4343506032647  26.7530691964286 20.6614620298084  C 26.8741629464286 20.888573456352  27.0183221726191 21.1071682044003  27.185546875 21.3172462739532  C 27.352771577381 21.527324343506  27.4825148809524 21.6919801277502  27.5747767857143 21.8112136266856  C 27.6670386904762 21.930447125621  27.8169642857143 22.0979418026969  28.0245535714286 22.3136976579134  C 28.2321428571429 22.5294535131299  28.3647693452381 22.6713981547197  28.4224330357143 22.7395315826828  C 28.4339657738095 22.7508871540099  28.45703125 22.7764371894961  28.4916294642857 22.8161816891412  C 28.5262276785714 22.8559261887864  28.5521763392857 22.8843151171043  28.5694754464286 22.9013484740951  C 28.5867745535714 22.9183818310859  28.6098400297619 22.9467707594038  28.638671875 22.986515259049  C 28.6675037202381 23.0262597586941  28.6876860119048 23.0574875798439  28.69921875 23.0801987224982  L 28.7424665178571 23.1653655074521  C 28.7424665178571 23.1653655074521  28.7539992559524 23.1994322214336  28.7770647321429 23.2675656493967  C 28.8001302083333 23.3356990773598  28.8030133928571 23.3726046841732  28.7857142857143 23.3782824698368  C 28.7684151785714 23.3839602555004  28.7626488095238 23.4208658623137  28.7684151785714 23.4889992902768  C 28.7338169642857 23.6479772888573  28.6588541666667 23.7728885734564  28.5435267857143 23.8637331440738  C 28.4281994047619 23.9545777146913  28.3013392857143 23.9943222143364  28.1629464285714 23.9829666430092  C 27.5863095238095 23.903477643719  27.0904017857143 23.8126330731015  26.6752232142857 23.7104329311568  C 24.8991815476191 23.2562100780696  23.296130952381 22.5294535131299  21.8660714285714 21.5301632363378  C 20.828125 21.7118523775727  19.8132440476191 21.8026969481902  18.8214285714286 21.8026969481902  C 15.696056547619 21.8026969481902  12.9743303571429 21.0532292405962  10.65625 19.5542938254081  C 11.3251488095238 19.5997161107168  11.8325892857143 19.6224272533712  12.1785714285714 19.6224272533712  C 14.0353422619048 19.6224272533712  15.817150297619 19.3669268985096  17.5239955357143 18.8559261887864  C 19.2308407738095 18.3449254790632  20.753162202381 17.6124911284599  22.0909598214286 16.6586231369766  C 23.5325520833333 15.6139105748758  24.6396949404762 14.4102200141945  25.4123883928571 13.0475514549326  C 26.1850818452381 11.6848828956707  26.5714285714286 10.2427253371185  26.5714285714286 8.72107877927608  C 26.5714285714286 7.84669978708304  26.4388020833333 6.98367636621717  26.1735491071429 6.13200851667849  C 27.6612723214286 6.93825408090844  28.8376116071429 7.94889992902768  29.7025669642857 9.1639460610362  Z " fill-rule="nonzero" fill="#028c10" stroke="none" fill-opacity="0.698039215686274" transform="matrix(1 0 0 1 312 6473 )" />
  </g>
</svg>