<?xml version="1.0" encoding="utf-8"?>
<svg version="1.1" xmlns:xlink="http://www.w3.org/1999/xlink" width="12px" height="14px" xmlns="http://www.w3.org/2000/svg">
  <g transform="matrix(1 0 0 1 -638 -8216 )">
    <path d="M 7.32793522267207 9.1953125  C 7.53846153846154 9.1953125  7.64372469635628 9.36979166666667  7.64372469635628 9.71875  L 7.64372469635628 11.3671875  C 7.64372469635628 11.7161458333333  7.53846153846154 11.890625  7.32793522267207 11.890625  C 7.20377867746289 11.890625  7.08232118758435 11.8333333333333  6.96356275303644 11.71875  L 6.96356275303644 9.3671875  C 7.08232118758435 9.25260416666667  7.20377867746289 9.1953125  7.32793522267207 9.1953125  Z M 10.0161943319838 9.1953125  C 10.2591093117409 9.1953125  10.3805668016194 9.37239583333333  10.3805668016194 9.7265625  L 10.3805668016194 10.0859375  L 9.65182186234818 10.0859375  L 9.65182186234818 9.7265625  C 9.65182186234818 9.37239583333333  9.77327935222672 9.1953125  10.0161943319838 9.1953125  Z M 2.5587044534413 12.46875  L 2.5587044534413 8.0234375  L 3.4251012145749 8.0234375  L 3.4251012145749 7.2890625  L 0.898785425101215 7.2890625  L 0.898785425101215 8.0234375  L 1.74898785425101 8.0234375  L 1.74898785425101 12.46875  L 2.5587044534413 12.46875  Z M 4.89068825910931 12.046875  L 4.89068825910931 12.46875  L 5.61133603238866 12.46875  L 5.61133603238866 8.609375  L 4.89068825910931 8.609375  L 4.89068825910931 11.5625  C 4.72874493927126 11.78125  4.5748987854251 11.890625  4.42914979757085 11.890625  C 4.33198380566802 11.890625  4.2753036437247 11.8359375  4.25910931174089 11.7265625  C 4.25371120107962 11.7109375  4.25101214574899 11.6197916666667  4.25101214574899 11.453125  L 4.25101214574899 8.609375  L 3.53036437246964 8.609375  L 3.53036437246964 11.6640625  C 3.53036437246964 11.9192708333333  3.55195681511471 12.109375  3.59514170040486 12.234375  C 3.65991902834008 12.4270833333333  3.81646423751687 12.5234375  4.06477732793522 12.5234375  C 4.32388663967611 12.5234375  4.59919028340081 12.3645833333333  4.89068825910931 12.046875  Z M 8.2914979757085 12.09375  C 8.34008097165992 11.953125  8.36437246963563 11.6927083333333  8.36437246963563 11.3125  L 8.36437246963563 9.7734375  C 8.36437246963563 9.39322916666667  8.34008097165992 9.13541666666667  8.2914979757085 9  C 8.19973009446694 8.70833333333333  8.0080971659919 8.5625  7.7165991902834 8.5625  C 7.44669365721997 8.5625  7.19568151147099 8.703125  6.96356275303644 8.984375  L 6.96356275303644 7.2890625  L 6.24291497975709 7.2890625  L 6.24291497975709 12.46875  L 6.96356275303644 12.46875  L 6.96356275303644 12.09375  C 7.20647773279352 12.3802083333333  7.45748987854251 12.5234375  7.7165991902834 12.5234375  C 8.0080971659919 12.5234375  8.19973009446694 12.3802083333333  8.2914979757085 12.09375  Z M 11.085020242915 11.6875  C 11.0958164642375 11.640625  11.1012145748988 11.4895833333333  11.1012145748988 11.234375  L 11.1012145748988 11.1328125  L 10.3643724696356 11.1328125  C 10.3643724696356 11.3984375  10.3589743589744 11.5572916666667  10.3481781376518 11.609375  C 10.3103913630229 11.796875  10.2024291497976 11.890625  10.0242914979757 11.890625  C 9.77597840755736 11.890625  9.65182186234818 11.7109375  9.65182186234818 11.3515625  L 9.65182186234818 10.671875  L 11.1012145748988 10.671875  L 11.1012145748988 9.8671875  C 11.1012145748988 9.45572916666667  11.0283400809717 9.15364583333333  10.8825910931174 8.9609375  C 10.6720647773279 8.6953125  10.3859649122807 8.5625  10.0242914979757 8.5625  C 9.65721997300945 8.5625  9.36842105263158 8.6953125  9.15789473684211 8.9609375  C 9.00674763832659 9.15364583333333  8.93117408906883 9.45572916666667  8.93117408906883 9.8671875  L 8.93117408906883 11.21875  C 8.93117408906883 11.6302083333333  9.00944669365722 11.9322916666667  9.16599190283401 12.125  C 9.37651821862348 12.390625  9.66801619433198 12.5234375  10.0404858299595 12.5234375  C 10.4291497975709 12.5234375  10.7206477732794 12.3854166666667  10.914979757085 12.109375  C 11.0121457489879 11.96875  11.0688259109312 11.828125  11.085020242915 11.6875  Z M 5.82995951417004 4.6484375  C 6.06207827260459 4.6484375  6.17813765182186 4.46614583333333  6.17813765182186 4.1015625  L 6.17813765182186 2.4609375  C 6.17813765182186 2.1015625  6.06207827260459 1.921875  5.82995951417004 1.921875  C 5.59784075573549 1.921875  5.48178137651822 2.1015625  5.48178137651822 2.4609375  L 5.48178137651822 4.1015625  C 5.48178137651822 4.46614583333333  5.59784075573549 4.6484375  5.82995951417004 4.6484375  Z M 11.7894736842105 7.234375  C 11.9298245614035 7.81770833333333  12 8.72916666666666  12 9.96875  C 12 11.1875  11.9298245614035 12.0989583333333  11.7894736842105 12.703125  C 11.7139001349528 13.0104166666667  11.557354925776 13.2682291666667  11.3198380566802 13.4765625  C 11.0823211875843 13.6848958333333  10.8070175438597 13.8046875  10.4939271255061 13.8359375  C 9.50067476383266 13.9453125  8.00269905533063 14  6 14  C 3.99730094466937 14  2.49932523616734 13.9453125  1.50607287449393 13.8359375  C 1.19298245614035 13.8046875  0.916329284750337 13.6848958333333  0.676113360323887 13.4765625  C 0.435897435897436 13.2682291666667  0.280701754385965 13.0104166666667  0.210526315789474 12.703125  C 0.0701754385964913 12.1197916666667  0 11.2083333333333  0 9.96875  C 0 8.75  0.0701754385964913 7.83854166666667  0.210526315789474 7.234375  C 0.286099865047234 6.92708333333333  0.442645074224022 6.66927083333333  0.680161943319838 6.4609375  C 0.917678812415655 6.25260416666667  1.19568151147099 6.13020833333333  1.51417004048583 6.09375  C 2.50202429149798 5.98958333333333  3.99730094466937 5.9375  6 5.9375  C 8.00269905533063 5.9375  9.50067476383266 5.98958333333333  10.4939271255061 6.09375  C 10.8070175438597 6.13020833333333  11.0836707152497 6.25260416666667  11.3238866396761 6.4609375  C 11.5641025641026 6.66927083333333  11.719298245614 6.92708333333333  11.7894736842105 7.234375  Z M 3.36842105263158 2.0546875  L 3.91902834008097 0  L 4.74493927125506 0  L 3.76518218623482 3.1171875  L 3.76518218623482 5.234375  L 2.95546558704453 5.234375  L 2.95546558704453 3.1171875  C 2.87989203778677 2.73177083333333  2.71524966261808 2.1796875  2.46153846153846 1.4609375  C 2.26180836707153 0.924479166666666  2.0863697705803 0.4375  1.93522267206478 0  L 2.79352226720648 0  L 3.36842105263158 2.0546875  Z M 6.68825910931174 1.6875  C 6.83940620782726 1.88020833333333  6.91497975708502 2.18489583333333  6.91497975708502 2.6015625  L 6.91497975708502 3.96875  C 6.91497975708502 4.390625  6.83940620782726 4.69791666666667  6.68825910931174 4.890625  C 6.48313090418354 5.15625  6.1970310391363 5.2890625  5.82995951417004 5.2890625  C 5.46828609986505 5.2890625  5.18488529014845 5.15625  4.97975708502024 4.890625  C 4.82860998650472 4.69270833333333  4.75303643724696 4.38541666666667  4.75303643724696 3.96875  L 4.75303643724696 2.6015625  C 4.75303643724696 2.18489583333333  4.82860998650472 1.88020833333333  4.97975708502024 1.6875  C 5.18488529014845 1.421875  5.46828609986505 1.2890625  5.82995951417004 1.2890625  C 6.1970310391363 1.2890625  6.48313090418354 1.421875  6.68825910931174 1.6875  Z M 8.89068825910931 1.3359375  L 9.62753036437247 1.3359375  L 9.62753036437247 5.234375  L 8.89068825910931 5.234375  L 8.89068825910931 4.8046875  C 8.60458839406208 5.12760416666667  8.32658569500675 5.2890625  8.05668016194332 5.2890625  C 7.80836707152497 5.2890625  7.64912280701754 5.19270833333333  7.57894736842105 5  C 7.5357624831309 4.875  7.51417004048583 4.6796875  7.51417004048583 4.4140625  L 7.51417004048583 1.3359375  L 8.25101214574899 1.3359375  L 8.25101214574899 4.203125  C 8.25101214574899 4.375  8.25371120107962 4.46614583333333  8.25910931174089 4.4765625  C 8.2753036437247 4.59114583333333  8.33198380566802 4.6484375  8.42914979757085 4.6484375  C 8.5748987854251 4.6484375  8.72874493927126 4.53645833333333  8.89068825910931 4.3125  L 8.89068825910931 1.3359375  Z " fill-rule="nonzero" fill="#ffffff" stroke="none" transform="matrix(1 0 0 1 638 8216 )" />
  </g>
</svg>